<svg width="20" height="15" viewBox="0 0 20 15" fill="none" xmlns="http://www.w3.org/2000/svg">
<g clip-path="url(#clip0_328_5532)">
<rect width="20" height="15" fill="white"/>
<path fill-rule="evenodd" clip-rule="evenodd" d="M0 0V15H20V0H0Z" fill="#F7FCFF"/>
<mask id="mask0_328_5532" style="mask-type:luminance" maskUnits="userSpaceOnUse" x="0" y="0" width="20" height="15">
<path fill-rule="evenodd" clip-rule="evenodd" d="M0 0V15H20V0H0Z" fill="white"/>
</mask>
<g mask="url(#mask0_328_5532)">
<path fill-rule="evenodd" clip-rule="evenodd" d="M0 0V5H20V0H0Z" fill="#FF8C1A"/>
<path fill-rule="evenodd" clip-rule="evenodd" d="M0 10V15H20V10H0Z" fill="#5EAA22"/>
<path d="M10 5C11.3807 5 12.5 6.11929 12.5 7.5C12.5 8.88071 11.3807 10 10 10C8.61929 10 7.5 8.88071 7.5 7.5C7.5 6.11929 8.61929 5 10 5ZM10 5.625C8.96447 5.625 8.125 6.46447 8.125 7.5C8.125 8.53553 8.96447 9.375 10 9.375C11.0355 9.375 11.875 8.53553 11.875 7.5C11.875 6.46447 11.0355 5.625 10 5.625Z" fill="#3D58DB"/>
<path fill-rule="evenodd" clip-rule="evenodd" d="M9.99708 8.03794L9.47586 9.95903L9.78108 7.99203L8.52356 9.53503L9.60244 7.86224L7.82603 8.76036L9.49203 7.671L7.50391 7.76895L9.46895 7.4514L7.61287 6.73223L9.53718 7.24138L8.13408 5.82946L9.68494 7.07729L8.97743 5.21673L9.88667 6.98747L9.99708 5L10.1075 6.98747L11.0167 5.21673L10.3092 7.07729L11.8601 5.82946L10.457 7.24138L12.3813 6.73223L10.5252 7.4514L12.4902 7.76895L10.5021 7.671L12.1681 8.76036L10.3917 7.86224L11.4706 9.53503L10.2131 7.99203L10.5183 9.95903L9.99708 8.03794Z" fill="#3D58DB"/>
</g>
</g>
<defs>
<clipPath id="clip0_328_5532">
<rect width="20" height="15" fill="white"/>
</clipPath>
</defs>
</svg>
