<svg width="20" height="20" viewBox="0 0 20 20" fill="none" xmlns="http://www.w3.org/2000/svg">
<path fill-rule="evenodd" clip-rule="evenodd" d="M6.66732 0.833336C7.12755 0.833336 7.50065 1.20643 7.50065 1.66667V5C7.50065 5.46024 7.12755 5.83334 6.66732 5.83334C6.20708 5.83334 5.83398 5.46024 5.83398 5V1.66667C5.83398 1.20643 6.20708 0.833336 6.66732 0.833336Z" fill="#1C1C1C"/>
<path fill-rule="evenodd" clip-rule="evenodd" d="M9.99935 0.833336C10.4596 0.833336 10.8327 1.20643 10.8327 1.66667V5C10.8327 5.46024 10.4596 5.83334 9.99935 5.83334C9.53911 5.83334 9.16602 5.46024 9.16602 5V1.66667C9.16602 1.20643 9.53911 0.833336 9.99935 0.833336Z" fill="#1C1C1C"/>
<path fill-rule="evenodd" clip-rule="evenodd" d="M13.3333 0.833336C13.7936 0.833336 14.1667 1.20643 14.1667 1.66667V5C14.1667 5.46024 13.7936 5.83334 13.3333 5.83334C12.8731 5.83334 12.5 5.46024 12.5 5V1.66667C12.5 1.20643 12.8731 0.833336 13.3333 0.833336Z" fill="#1C1C1C"/>
<path fill-rule="evenodd" clip-rule="evenodd" d="M5 4.16667C4.53976 4.16667 4.16667 4.53976 4.16667 5V16.6667C4.16667 17.1269 4.53976 17.5 5 17.5H15C15.4602 17.5 15.8333 17.1269 15.8333 16.6667V5C15.8333 4.53976 15.4602 4.16667 15 4.16667H5ZM2.5 5C2.5 3.61929 3.61929 2.5 5 2.5H15C16.3807 2.5 17.5 3.61929 17.5 5V16.6667C17.5 18.0474 16.3807 19.1667 15 19.1667H5C3.61929 19.1667 2.5 18.0474 2.5 16.6667V5Z" fill="#1C1C1C"/>
<path fill-rule="evenodd" clip-rule="evenodd" d="M5.83398 8.33333C5.83398 7.8731 6.20708 7.5 6.66732 7.5H11.6673C12.1276 7.5 12.5007 7.8731 12.5007 8.33333C12.5007 8.79357 12.1276 9.16667 11.6673 9.16667H6.66732C6.20708 9.16667 5.83398 8.79357 5.83398 8.33333Z" fill="#1C1C1C"/>
<path fill-rule="evenodd" clip-rule="evenodd" d="M5.83398 11.6667C5.83398 11.2064 6.20708 10.8333 6.66732 10.8333H13.334C13.7942 10.8333 14.1673 11.2064 14.1673 11.6667C14.1673 12.1269 13.7942 12.5 13.334 12.5H6.66732C6.20708 12.5 5.83398 12.1269 5.83398 11.6667Z" fill="#1C1C1C"/>
<path fill-rule="evenodd" clip-rule="evenodd" d="M5.83398 15C5.83398 14.5398 6.20708 14.1667 6.66732 14.1667H10.834C11.2942 14.1667 11.6673 14.5398 11.6673 15C11.6673 15.4602 11.2942 15.8333 10.834 15.8333H6.66732C6.20708 15.8333 5.83398 15.4602 5.83398 15Z" fill="#1C1C1C"/>
</svg>
