<svg width="20" height="20" viewBox="0 0 20 20" fill="none" xmlns="http://www.w3.org/2000/svg">
<g clip-path="url(#clip0_336_11915)">
<path d="M2.93075 2.93L2.56742 3.83833C2.41242 4.2675 1.75492 4.2675 1.59992 3.83833L1.23492 2.92417L0.319083 2.53833C-0.107584 2.37583 -0.095084 1.71833 0.336583 1.57167L1.23825 1.23L1.60075 0.3275C1.75575 -0.101667 2.41242 -0.101667 2.56742 0.3275L2.93075 1.23583L3.83908 1.59917C4.26825 1.75417 4.26825 2.41167 3.83908 2.56667L2.93075 2.93ZM3.29908 6.79667L4.39742 7.26L4.83575 8.35667C5.02158 8.87167 5.81075 8.87167 5.99658 8.35667L6.43242 7.26667L7.52242 6.83083C8.03742 6.645 8.03742 5.85583 7.52242 5.67L6.43242 5.23417L5.99658 4.14417C5.81075 3.62917 5.02158 3.62917 4.83575 4.14417L4.40242 5.22833L3.31992 5.63833C2.80158 5.815 2.78658 6.60333 3.29825 6.79833L3.29908 6.79667ZM17.4741 7.91583C17.4749 3.55167 14.1216 0 10.0007 0C8.67325 0 7.36908 0.373333 6.22908 1.08083C5.83742 1.3225 5.71742 1.83667 5.95992 2.2275C6.20158 2.61833 6.71492 2.74167 7.10658 2.49667C7.98408 1.95417 8.98492 1.66667 10.0016 1.66667C13.2041 1.66667 15.8091 4.47 15.8091 7.91667C15.8091 11.3633 13.2041 14.1667 10.0016 14.1667C7.73242 14.1667 5.65825 12.73 4.71575 10.5075C4.53492 10.0833 4.04492 9.8875 3.62242 10.0658C3.19908 10.2458 3.00075 10.735 3.18075 11.1592C4.20408 13.5717 6.29325 15.2458 8.69992 15.6992L8.29075 17.9508C8.09658 19.0183 8.91658 20.0008 10.0016 20.0008C11.0866 20.0008 11.9066 19.0183 11.7124 17.9508L11.3041 15.7058C14.8057 15.05 17.4757 11.8117 17.4757 7.9175L17.4741 7.91583Z" fill="#1C1C1C"/>
</g>
<defs>
<clipPath id="clip0_336_11915">
<rect width="20" height="20" fill="white"/>
</clipPath>
</defs>
</svg>
