<svg width="21" height="16" viewBox="0 0 21 16" fill="none" xmlns="http://www.w3.org/2000/svg">
<g clip-path="url(#clip0_328_5512)">
<rect width="21" height="16" fill="white"/>
<path fill-rule="evenodd" clip-rule="evenodd" d="M-0.333984 -0.5V16.5H22.3327V-0.5H-0.333984Z" fill="#F7FCFF"/>
<mask id="mask0_328_5512" style="mask-type:luminance" maskUnits="userSpaceOnUse" x="-1" y="-1" width="24" height="18">
<path fill-rule="evenodd" clip-rule="evenodd" d="M-0.333984 -0.5V16.5H22.3327V-0.5H-0.333984Z" fill="white"/>
</mask>
<g mask="url(#mask0_328_5512)">
<path fill-rule="evenodd" clip-rule="evenodd" d="M-0.333984 -0.5V8H22.3327V-0.5H-0.333984Z" fill="#E31D1C"/>
<path d="M2.39453 4.01514C2.39453 1.02934 4.9753 0.808998 5.94824 1.05518C5.91651 1.06767 3.94727 1.8517 3.94727 4.01514C3.94743 6.17793 5.91574 6.98727 5.94824 7.00049C4.93644 7.56353 2.39469 7.00084 2.39453 4.01514ZM7.31055 5.43018H7.95703L7.47949 5.96436L7.62305 6.64014L7.03613 6.29346L6.46191 6.64014L6.59277 5.96436L6.11523 5.45752L6.7627 5.43018L7.03613 4.79834L7.31055 5.43018ZM9.39648 5.39209H10.043L9.56543 5.92529L9.70898 6.60205L9.12207 6.25537L8.54883 6.60205L8.67969 5.92529L8.20117 5.41943L8.84863 5.39209L9.12207 4.76025L9.39648 5.39209ZM6.57812 3.75244H7.22461L6.74805 4.28662L6.8916 4.9624L6.30469 4.61572L5.73047 4.9624L5.86133 4.28662L5.38281 3.77979L6.03027 3.75244L6.30469 3.12061L6.57812 3.75244ZM10.373 3.72119H11.0195L10.543 4.25537L10.6865 4.93213L10.0996 4.58545L9.52539 4.93213L9.65625 4.25537L9.17773 3.74854L9.8252 3.72119L10.0996 3.09033L10.373 3.72119ZM8.50977 2.37744H9.15625L8.67871 2.91064L8.82227 3.5874L8.23535 3.24072L7.66113 3.5874L7.79297 2.91064L7.31445 2.40479L7.96191 2.37744L8.23535 1.74561L8.50977 2.37744Z" fill="#F1F9FF"/>
</g>
</g>
<defs>
<clipPath id="clip0_328_5512">
<rect width="21" height="16" fill="white"/>
</clipPath>
</defs>
</svg>
